<svg width="900" height="560" viewBox="0 0 900 560" fill="none" xmlns="http://www.w3.org/2000/svg">
  <rect width="900" height="560" rx="32" fill="#0B1B32"/>
  <circle cx="730" cy="110" r="90" fill="#E31B23" opacity=".18"/>
  <circle cx="180" cy="460" r="140" fill="#FFD166" opacity=".10"/>
  <path d="M70 400C190 335 345 320 490 357C575 379 662 381 827 331V560H70V400Z" fill="#152C4B"/>
  <path d="M122 320h355l64 95H92l30-95Z" fill="#E31B23"/>
  <path d="M535 343h137l85 72H541l-6-72Z" fill="#C1121F"/>
  <path d="M155 342h256l30 47H139l16-47Z" fill="#F8F9FA" opacity=".92"/>
  <path d="M566 358h82l46 38H568l-2-38Z" fill="#F8F9FA" opacity=".88"/>
  <rect x="80" y="411" width="705" height="36" rx="12" fill="#101820"/>
  <circle cx="190" cy="453" r="52" fill="#101820" stroke="#F8F9FA" stroke-width="12"/>
  <circle cx="190" cy="453" r="18" fill="#F8F9FA"/>
  <circle cx="625" cy="453" r="52" fill="#101820" stroke="#F8F9FA" stroke-width="12"/>
  <circle cx="625" cy="453" r="18" fill="#F8F9FA"/>
  <path d="M90 290c80-50 245-88 396-69 74 10 136 34 179 66" stroke="#FFD166" stroke-width="8" stroke-linecap="round" opacity=".65"/>
  <path d="M103 276c45-22 98-38 159-49" stroke="#fff" stroke-width="3" stroke-linecap="round" opacity=".4"/>
</svg>
